<svg width="355" height="73" viewBox="0 0 355 73" fill="none" xmlns="http://www.w3.org/2000/svg">
<path d="M334.26 31.91C338.334 31.8344 342.373 32.6858 346.07 34.4L346.22 34.47V64.18L346.04 64.25C342.24 65.4968 338.259 66.1018 334.26 66.04C324.48 66.04 319.52 59.82 319.52 47.56C319.52 37.17 324.52 31.91 334.26 31.91V31.91ZM332.89 72.54C341.26 72.54 348.4 71.6 354.13 69.74V-1.52588e-05L346.22 5.50999V27.51L345.85 27.35C342.16 25.839 338.208 25.071 334.22 25.09C319.3 25.09 311.74 32.74 311.74 47.84C311.74 64.2 318.86 72.5 332.89 72.5" fill="#A8AAAD"/>
<path d="M260.11 71.17C255.917 72.1156 251.629 72.5786 247.33 72.55C230.277 72.55 221.75 64.2533 221.75 47.66C221.75 32.2867 230.277 24.6 247.33 24.6C251.628 24.5734 255.915 25.033 260.11 25.97V32.82C255.762 31.867 251.321 31.4074 246.87 31.45C235.763 31.45 230.207 36.8533 230.2 47.66C230.2 59.66 235.757 65.66 246.87 65.66C251.321 65.7045 255.763 65.2415 260.11 64.28V71.17Z" fill="#A8AAAD"/>
<path d="M284.78 49.72C277.447 49.72 273.78 52.31 273.78 57.49C273.78 62.67 276.67 65.2567 282.45 65.25C287.783 65.4111 293.015 63.7693 297.3 60.59V50.64C293.154 50.039 288.97 49.7349 284.78 49.73V49.72ZM265.33 57.63C265.33 47.7967 271.813 42.88 284.78 42.88C288.97 42.8833 293.155 43.1907 297.3 43.8V39.27C297.3 33.77 292.99 31.0167 284.37 31.01C279.234 31.0409 274.128 31.8088 269.21 33.29V26.44C274.128 24.9587 279.234 24.1909 284.37 24.16C298.623 24.16 305.747 29.1233 305.74 39.05V72.11H301.01L298.09 67.36C293.477 70.4732 288.035 72.1281 282.47 72.11C271.057 72.11 265.35 67.2833 265.35 57.63" fill="#A8AAAD"/>
<path d="M150.39 43.64H142.77C139.03 43.64 137.16 42.0733 137.16 38.94C137.16 35.6533 140.377 34.01 146.81 34.01C152.624 33.9585 158.395 35.0209 163.81 37.14V27.28C158.422 25.4587 152.767 24.5496 147.08 24.59C133.12 24.59 126.14 29.5233 126.14 39.39C126.14 48.8033 130.923 53.51 140.49 53.51H149.01C152.45 53.51 154.17 55.08 154.17 58.22C154.17 61.5 151.613 63.1434 146.5 63.15C140.315 63.2666 134.165 62.2008 128.38 60.01V69.87C134.079 71.7435 140.051 72.656 146.05 72.57C159.383 72.57 166.05 67.6367 166.05 57.77C166.05 48.35 160.817 43.64 150.35 43.64" fill="#003144"/>
<path d="M193.45 62.5C190.249 62.5515 187.058 62.1131 183.99 61.2V37.3C187.401 35.6612 191.146 34.833 194.93 34.88C201.117 34.88 204.21 39.02 204.21 47.3C204.21 57.4333 200.623 62.5 193.45 62.5V62.5ZM195.87 25.02C191.64 24.9915 187.503 26.2544 184.01 28.64V-1.52588e-05L172.13 8.23997V70.17C179.013 71.4027 185.988 72.0483 192.98 72.1C208.313 72.1 215.98 63.94 215.98 47.62C215.98 32.5466 209.283 25.0133 195.89 25.02" fill="#003144"/>
<path d="M25.25 72.14L40.45 72.16L41.71 54.35L31.8 50.22L25.25 72.14Z" fill="#B52425"/>
<path d="M42.4698 43.72L63.2499 44.08C63.2499 44.08 51.3199 8.49 51.6299 8.08L35.1899 27.23L42.4698 43.72Z" fill="#B52425"/>
<path d="M26.84 10.69L0 44.08L23.48 40.16L35.2 27.25L51.64 8.1L26.84 10.69Z" fill="#F05D24"/>
<path d="M41.7199 54.35L40.4399 72.16L63.2499 44.08L42.4699 43.72L41.7199 54.35Z" fill="#D84927"/>
<path d="M3.1499 60.73L25.2499 72.14L31.7999 50.22L20.3999 48.66L3.1499 60.73Z" fill="#D84927"/>
<path d="M0 44.08L3.15 60.73L20.4 48.65L23.48 40.16L0 44.08Z" fill="#B52425"/>
<path d="M76.75 72.09V8.09001L88.61 0.0400238V31.09C90.402 29.1277 92.5968 27.5756 95.0442 26.5401C97.4916 25.5045 100.134 25.0099 102.79 25.09C113.923 25.09 119.49 30.88 119.49 42.46V72.08H107.63V42.47C107.63 37.2767 105.047 34.68 99.88 34.68C96.0333 34.68 92.2767 36.2167 88.61 39.29V72.09H76.75Z" fill="#003144"/>
</svg>
